<?xml version="1.0" encoding="utf-8"?>
<!-- Generator: Adobe Illustrator 25.0.1, SVG Export Plug-In . SVG Version: 6.00 Build 0)  -->
<svg version="1.0" id="Layer_1" xmlns="http://www.w3.org/2000/svg" xmlns:xlink="http://www.w3.org/1999/xlink" x="0px" y="0px"
	 viewBox="0 0 655.3 500" style="enable-background:new 0 0 655.3 500;" xml:space="preserve">
<style type="text/css">
	.st0{clip-path:url(#SVGID_2_);}
	.st1{fill:#F4191C;}
	.st2{filter:url(#Adobe_OpacityMaskFilter);}
	.st3{filter:url(#Adobe_OpacityMaskFilter_1_);}
	.st4{mask:url(#SVGID_3_);fill:url(#SVGID_4_);}
	.st5{clip-path:url(#SVGID_6_);fill:#3E2723;fill-opacity:0.15;}
	.st6{clip-path:url(#SVGID_8_);}
	.st7{fill:#0F9D58;}
	.st8{filter:url(#Adobe_OpacityMaskFilter_2_);}
	.st9{filter:url(#Adobe_OpacityMaskFilter_3_);}
	.st10{mask:url(#SVGID_9_);fill:url(#SVGID_10_);}
	.st11{fill:#00A340;}
	.st12{clip-path:url(#SVGID_12_);fill:#263238;fill-opacity:0.15;}
	.st13{clip-path:url(#SVGID_14_);}
	.st14{fill:#FFCD40;}
	.st15{filter:url(#Adobe_OpacityMaskFilter_4_);}
	.st16{filter:url(#Adobe_OpacityMaskFilter_5_);}
	.st17{mask:url(#SVGID_15_);fill:url(#SVGID_16_);}
	.st18{fill:url(#SVGID_17_);}
	.st19{clip-path:url(#SVGID_19_);}
	.st20{fill:#FFBD02;}
	.st21{filter:url(#Adobe_OpacityMaskFilter_6_);}
	.st22{filter:url(#Adobe_OpacityMaskFilter_7_);}
	.st23{mask:url(#SVGID_20_);fill:url(#SVGID_21_);}
	.st24{clip-path:url(#SVGID_25_);}
	.st25{fill:#F1F1F1;}
	.st26{fill:#4285F4;}
	.st27{clip-path:url(#SVGID_27_);}
	.st28{fill:#FFFFFF;fill-opacity:0.1;}
	.st29{fill:none;}
</style>
<g id="Background_Layer">
</g>
<g>
	<g>
		<defs>
			<circle id="SVGID_1_" cx="327.6" cy="251.3" r="163"/>
		</defs>
		<use xlink:href="#SVGID_1_"  style="overflow:visible;fill:#F4191C;"/>
		<clipPath id="SVGID_2_">
			<use xlink:href="#SVGID_1_"  style="overflow:visible;"/>
		</clipPath>
		<g class="st0">
			<polygon class="st1" points="190.5,88.2 190.5,288.3 263.5,288.3 327.6,177.1 490.6,177.1 490.6,88.2 			"/>
			<defs>
				<filter id="Adobe_OpacityMaskFilter" filterUnits="userSpaceOnUse" x="190.5" y="88.2" width="300.1" height="200.1">
					<feFlood  style="flood-color:white;flood-opacity:1" result="back"/>
					<feBlend  in="SourceGraphic" in2="back" mode="normal"/>
				</filter>
			</defs>
			<mask maskUnits="userSpaceOnUse" x="190.5" y="88.2" width="300.1" height="200.1" id="SVGID_3_">
				<g class="st2">
					<defs>
						<filter id="Adobe_OpacityMaskFilter_1_" filterUnits="userSpaceOnUse" x="190.5" y="88.2" width="300.1" height="200.1">
							<feFlood  style="flood-color:white;flood-opacity:1" result="back"/>
							<feBlend  in="SourceGraphic" in2="back" mode="normal"/>
						</filter>
					</defs>
					<mask maskUnits="userSpaceOnUse" x="190.5" y="88.2" width="300.1" height="200.1" id="SVGID_3_">
						<g class="st3">
						</g>
					</mask>
					
						<linearGradient id="SVGID_4_" gradientUnits="userSpaceOnUse" x1="928.4202" y1="-1230.6156" x2="1317.4573" y2="-1003.3691" gradientTransform="matrix(0.25 0 0 -0.25 -28 -95.25)">
						<stop  offset="0" style="stop-color:#999999"/>
						<stop  offset="0.66" style="stop-color:#000000"/>
					</linearGradient>
					<polygon class="st4" points="190.5,88.2 190.5,288.3 263.5,288.3 327.6,177.1 490.6,177.1 490.6,88.2 					"/>
				</g>
			</mask>
			<polygon class="st1" points="190.5,88.2 190.5,288.3 263.5,288.3 327.6,177.1 490.6,177.1 490.6,88.2 			"/>
		</g>
	</g>
</g>
<g>
	<g>
		<g>
			<defs>
				<circle id="SVGID_5_" cx="327.6" cy="251.3" r="163"/>
			</defs>
			<clipPath id="SVGID_6_">
				<use xlink:href="#SVGID_5_"  style="overflow:visible;"/>
			</clipPath>
			<polygon class="st5" points="265.2,287.7 191.4,161.1 190.4,163 263.6,288.6 			"/>
		</g>
	</g>
</g>
<g>
	<g>
		<defs>
			<circle id="SVGID_7_" cx="327.6" cy="251.3" r="163"/>
		</defs>
		<clipPath id="SVGID_8_">
			<use xlink:href="#SVGID_7_"  style="overflow:visible;"/>
		</clipPath>
		<g class="st6">
			<polygon class="st7" points="164.6,414.3 319.8,414.3 391.8,342.3 391.8,288.3 263.5,288.3 164.6,118.8 			"/>
			<defs>
				<filter id="Adobe_OpacityMaskFilter_2_" filterUnits="userSpaceOnUse" x="164.6" y="118.8" width="227.2" height="295.5">
					<feFlood  style="flood-color:white;flood-opacity:1" result="back"/>
					<feBlend  in="SourceGraphic" in2="back" mode="normal"/>
				</filter>
			</defs>
			<mask maskUnits="userSpaceOnUse" x="164.6" y="118.8" width="227.2" height="295.5" id="SVGID_9_">
				<g class="st8">
					<defs>
						<filter id="Adobe_OpacityMaskFilter_3_" filterUnits="userSpaceOnUse" x="164.6" y="118.8" width="227.2" height="295.5">
							<feFlood  style="flood-color:white;flood-opacity:1" result="back"/>
							<feBlend  in="SourceGraphic" in2="back" mode="normal"/>
						</filter>
					</defs>
					<mask maskUnits="userSpaceOnUse" x="164.6" y="118.8" width="227.2" height="295.5" id="SVGID_9_">
						<g class="st9">
						</g>
					</mask>
					
						<linearGradient id="SVGID_10_" gradientUnits="userSpaceOnUse" x1="1532.5897" y1="-1893.6929" x2="1100.3274" y2="-1640.5109" gradientTransform="matrix(0.25 0 0 -0.25 -28 -95.25)">
						<stop  offset="0" style="stop-color:#666666"/>
						<stop  offset="0.33" style="stop-color:#000000"/>
					</linearGradient>
					<polygon class="st10" points="164.6,414.3 319.8,414.3 391.8,342.3 391.8,288.3 263.5,288.3 164.6,118.8 					"/>
				</g>
			</mask>
			<polygon class="st11" points="164.6,414.3 319.8,414.3 391.8,342.3 391.8,288.3 263.5,288.3 164.6,118.8 			"/>
		</g>
	</g>
</g>
<g>
	<g>
		<g>
			<defs>
				<circle id="SVGID_11_" cx="327.6" cy="251.3" r="163"/>
			</defs>
			<clipPath id="SVGID_12_">
				<use xlink:href="#SVGID_11_"  style="overflow:visible;"/>
			</clipPath>
			<polygon class="st12" points="390.3,290.8 388.7,289.9 317.6,414.3 319.8,414.3 390.4,290.8 			"/>
		</g>
	</g>
</g>
<g>
	<g>
		<g>
			<g>
				<defs>
					<polygon id="SVGID_13_" points="164.6,414.3 319.8,414.3 391.8,342.3 391.8,288.3 263.5,288.3 164.6,118.8 					"/>
				</defs>
				<clipPath id="SVGID_14_">
					<use xlink:href="#SVGID_13_"  style="overflow:visible;"/>
				</clipPath>
				<g class="st13">
					<g>
						<polygon class="st14" points="327.6,177.1 391.8,288.3 319.8,414.3 490.6,414.3 490.6,177.1 						"/>
					</g>
					<defs>
						<filter id="Adobe_OpacityMaskFilter_4_" filterUnits="userSpaceOnUse" x="319.8" y="177.1" width="170.9" height="237.1">
							<feFlood  style="flood-color:white;flood-opacity:1" result="back"/>
							<feBlend  in="SourceGraphic" in2="back" mode="normal"/>
						</filter>
					</defs>
					<mask maskUnits="userSpaceOnUse" x="319.8" y="177.1" width="170.9" height="237.1" id="SVGID_15_">
						<g class="st15">
							<defs>
								<filter id="Adobe_OpacityMaskFilter_5_" filterUnits="userSpaceOnUse" x="319.8" y="177.1" width="170.9" height="237.1">
									<feFlood  style="flood-color:white;flood-opacity:1" result="back"/>
									<feBlend  in="SourceGraphic" in2="back" mode="normal"/>
								</filter>
							</defs>
							<mask maskUnits="userSpaceOnUse" x="319.8" y="177.1" width="170.9" height="237.1" id="SVGID_15_">
								<g class="st16">
								</g>
							</mask>
							
								<linearGradient id="SVGID_16_" gradientUnits="userSpaceOnUse" x1="1614.0289" y1="-1043.7585" x2="1722.8744" y2="-1520.4321" gradientTransform="matrix(0.25 0 0 -0.25 -28 -95.25)">
								<stop  offset="0" style="stop-color:#4D4D4D"/>
								<stop  offset="0.66" style="stop-color:#000000"/>
							</linearGradient>
							<polygon class="st17" points="327.6,177.1 391.8,288.3 319.8,414.3 490.6,414.3 490.6,177.1 							"/>
						</g>
					</mask>
					
						<linearGradient id="SVGID_17_" gradientUnits="userSpaceOnUse" x1="1614.0289" y1="-1043.7585" x2="1722.8744" y2="-1520.4321" gradientTransform="matrix(0.25 0 0 -0.25 -28 -95.25)">
						<stop  offset="0" style="stop-color:#EA6100"/>
						<stop  offset="0.66" style="stop-color:#EA6100"/>
					</linearGradient>
					<polygon class="st18" points="327.6,177.1 391.8,288.3 319.8,414.3 490.6,414.3 490.6,177.1 					"/>
				</g>
			</g>
		</g>
	</g>
	<g>
		<g>
			<g>
				<defs>
					<circle id="SVGID_18_" cx="327.6" cy="251.3" r="163"/>
				</defs>
				<clipPath id="SVGID_19_">
					<use xlink:href="#SVGID_18_"  style="overflow:visible;"/>
				</clipPath>
				<g class="st19">
					<polygon class="st20" points="327.8,169.9 394,284.5 319.8,414.3 495.8,414.3 495.8,169.9 					"/>
					<defs>
						<filter id="Adobe_OpacityMaskFilter_6_" filterUnits="userSpaceOnUse" x="319.8" y="169.9" width="176.1" height="244.4">
							<feFlood  style="flood-color:white;flood-opacity:1" result="back"/>
							<feBlend  in="SourceGraphic" in2="back" mode="normal"/>
						</filter>
					</defs>
					<mask maskUnits="userSpaceOnUse" x="319.8" y="169.9" width="176.1" height="244.4" id="SVGID_20_">
						<g class="st21">
							<defs>
								<filter id="Adobe_OpacityMaskFilter_7_" filterUnits="userSpaceOnUse" x="319.8" y="169.9" width="176.1" height="244.4">
									<feFlood  style="flood-color:white;flood-opacity:1" result="back"/>
									<feBlend  in="SourceGraphic" in2="back" mode="normal"/>
								</filter>
							</defs>
							<mask maskUnits="userSpaceOnUse" x="319.8" y="169.9" width="176.1" height="244.4" id="SVGID_20_">
								<g class="st22">
								</g>
							</mask>
							
								<linearGradient id="SVGID_21_" gradientUnits="userSpaceOnUse" x1="1620.8335" y1="-1013.4078" x2="1733.001" y2="-1504.63" gradientTransform="matrix(0.25 0 0 -0.25 -28 -95.25)">
								<stop  offset="0" style="stop-color:#4D4D4D"/>
								<stop  offset="0.66" style="stop-color:#000000"/>
							</linearGradient>
							<polygon class="st23" points="327.8,169.9 394,284.5 319.8,414.3 495.8,414.3 495.8,169.9 							"/>
						</g>
					</mask>
					<polygon class="st20" points="327.8,169.9 394,284.5 319.8,414.3 495.8,414.3 495.8,169.9 					"/>
				</g>
			</g>
		</g>
	</g>
	<g>
		<g>
			<g>
				<g>
					<g>
						<defs>
							<circle id="SVGID_22_" cx="327.6" cy="251.3" r="163"/>
						</defs>
						<clipPath id="SVGID_23_">
							<use xlink:href="#SVGID_22_"  style="overflow:visible;"/>
						</clipPath>
					</g>
				</g>
			</g>
			<g>
				<g>
					<defs>
						<circle id="SVGID_24_" cx="327.6" cy="251.3" r="163"/>
					</defs>
					<clipPath id="SVGID_25_">
						<use xlink:href="#SVGID_24_"  style="overflow:visible;"/>
					</clipPath>
					<g class="st24">
						<g>
							<circle class="st25" cx="327.6" cy="251.3" r="81.4"/>
						</g>
						<g>
							<circle class="st26" cx="327.6" cy="251.3" r="65"/>
						</g>
					</g>
				</g>
			</g>
			<g>
				<g>
					<g>
						<defs>
							<circle id="SVGID_26_" cx="327.6" cy="251.3" r="163"/>
						</defs>
						<clipPath id="SVGID_27_">
							<use xlink:href="#SVGID_26_"  style="overflow:visible;"/>
						</clipPath>
						<g class="st27">
							<path class="st28" d="M391.7,288.3c-12.8,22.2-36.7,37.1-64.1,37.1s-51.3-14.9-64.1-37.1h-0.1l-98.8-169.5v1.9l98.9,169.4
								h0.1c12.8,22.2,36.7,37.1,64.1,37.1c27.4,0,51.3-14.9,64.1-37.1h0.1v-1.9L391.7,288.3L391.7,288.3z"/>
						</g>
					</g>
				</g>
			</g>
		</g>
		<rect x="149.8" y="113.7" class="st29" width="355.7" height="355.7"/>
	</g>
</g>
</svg>
