<?xml version="1.0" standalone="no"?>
<!DOCTYPE svg PUBLIC "-//W3C//DTD SVG 20010904//EN"
 "http://www.w3.org/TR/2001/REC-SVG-20010904/DTD/svg10.dtd">
<svg version="1.0" xmlns="http://www.w3.org/2000/svg"
 width="706.000000pt" height="1133.000000pt" viewBox="0 0 706.000000 1133.000000"
 preserveAspectRatio="xMidYMid meet">

<g transform="translate(0.000000,1133.000000) scale(0.100000,-0.100000)"
fill="#000000" stroke="none">
<path d="M4065 11203 c-328 -26 -557 -86 -960 -252 -367 -151 -535 -243 -736
-401 -165 -129 -384 -371 -429 -474 -12 -26 -23 -80 -27 -126 l-6 -81 -25 23
c-68 64 -142 189 -167 285 -19 71 -19 129 0 213 8 36 18 78 21 93 6 25 1 22
-48 -30 -135 -143 -235 -324 -268 -483 -28 -137 -27 -275 5 -465 l7 -41 -87
-12 c-91 -13 -150 -36 -199 -76 l-30 -23 60 -8 c83 -10 146 -40 183 -86 53
-65 85 -45 58 35 -8 24 -13 46 -11 49 2 2 29 0 59 -6 104 -18 165 11 165 79 0
19 -13 66 -29 104 -17 38 -35 97 -42 130 -19 95 -1 249 41 355 l12 30 18 -52
c40 -113 102 -214 187 -304 111 -116 153 -129 202 -61 17 24 21 45 21 100 0
106 15 168 66 269 53 106 127 184 287 301 176 130 291 193 561 307 148 63 436
169 436 161 0 -2 -36 -61 -81 -131 -89 -138 -162 -285 -178 -355 -12 -53 -14
-110 -3 -110 4 0 56 16 117 35 339 109 720 175 1002 175 333 0 685 -87 1023
-253 l125 -62 -120 -7 c-617 -36 -865 -88 -1185 -248 -108 -54 -265 -154 -335
-214 l-40 -34 122 44 c259 93 481 134 731 134 390 0 667 -103 1051 -390 178
-133 463 -390 433 -390 -6 0 -55 11 -109 24 -359 90 -730 128 -1059 108 -286
-17 -652 -72 -889 -133 -732 -188 -1099 -352 -1194 -536 -18 -35 -13 -114 9
-150 23 -38 74 -52 111 -32 23 13 22 14 -25 19 -31 4 -53 13 -62 25 -16 21
-18 83 -4 105 6 10 9 3 7 -27 0 -22 5 -48 12 -57 19 -22 67 -20 91 4 24 24 27
60 5 60 -24 0 -18 44 9 70 58 54 73 -15 32 -144 -28 -90 -63 -148 -170 -285
-135 -174 -259 -274 -394 -321 -31 -11 -47 -19 -35 -20 34 0 146 43 208 81
116 70 279 257 403 462 102 167 133 269 102 328 -10 18 -3 23 77 60 347 160
642 223 1139 244 310 12 709 -37 1004 -124 177 -52 333 -123 530 -243 364
-220 598 -477 693 -765 51 -153 69 -262 73 -458 4 -162 4 -169 -12 -140 -265
487 -509 772 -806 946 -277 162 -862 263 -1188 205 -92 -16 -230 -56 -260 -76
-19 -12 -25 -12 105 5 234 31 491 14 667 -45 225 -75 449 -253 638 -505 291
-388 459 -682 553 -965 91 -274 116 -420 124 -720 6 -236 -6 -355 -52 -536
-33 -127 -116 -340 -172 -442 -47 -87 -47 -107 -2 -100 46 6 259 401 334 617
67 196 115 416 115 529 0 67 -20 102 -60 102 -17 0 -20 7 -20 48 0 68 -36 305
-71 467 -59 268 -151 502 -273 690 -151 231 -409 495 -664 679 -29 21 -51 40
-49 43 7 6 151 -44 210 -73 114 -58 225 -140 328 -243 87 -88 130 -143 249
-321 79 -118 161 -253 183 -300 94 -202 146 -422 170 -720 2 -29 10 -12 45 95
54 170 87 308 114 480 19 121 22 182 21 440 0 284 -1 304 -22 375 -43 140 -77
185 -139 184 -36 -1 -39 2 -78 70 -107 183 -312 410 -476 527 -165 117 -451
231 -723 288 -153 32 -411 71 -474 71 -22 0 -43 5 -47 12 -10 16 436 4 589
-17 473 -63 734 -172 967 -405 134 -133 246 -287 339 -465 38 -74 40 -55 6 98
-104 477 -278 763 -679 1115 -195 172 -323 261 -481 337 -297 144 -548 208
-935 238 -33 2 -31 3 20 15 155 34 412 42 587 17 183 -26 392 -87 592 -172
227 -97 339 -164 451 -269 119 -112 196 -217 287 -389 29 -55 53 -96 53 -92 0
19 -76 191 -136 307 -127 243 -272 441 -468 634 -300 295 -694 557 -979 651
-179 58 -330 79 -577 79 -221 0 -357 -13 -580 -55 -142 -27 -398 -93 -520
-134 -55 -18 -100 -31 -100 -28 0 11 115 170 176 244 147 177 401 383 579 469
85 42 224 80 290 80 22 0 47 5 55 10 14 9 -253 12 -355 3z"/>
<path d="M2790 10051 c-204 -37 -364 -113 -481 -230 -192 -192 -179 -400 33
-508 227 -117 428 -146 526 -78 28 20 30 92 3 150 -29 65 -152 163 -181 145
-10 -6 -5 -16 23 -43 21 -19 37 -39 37 -45 0 -6 3 -17 6 -26 9 -22 -27 -21
-74 3 -81 41 -133 121 -113 173 12 32 83 91 142 117 53 25 126 27 196 6 40
-12 58 -25 82 -57 51 -69 64 -126 59 -250 -7 -134 -33 -193 -125 -285 -79 -79
-103 -125 -103 -199 0 -54 -2 -58 -56 -117 -81 -90 -162 -217 -191 -298 -31
-91 -40 -209 -22 -324 l13 -90 12 110 c7 61 20 139 30 175 22 83 73 196 108
238 42 48 143 117 238 161 46 21 90 46 97 55 10 12 12 34 8 84 -6 61 -4 71 14
91 27 29 60 41 111 41 78 0 134 48 157 136 47 181 54 534 13 662 -41 128 -102
182 -237 207 -97 19 -204 17 -325 -4z"/>
<path d="M1737 9401 c-139 -98 -285 -238 -409 -391 -81 -100 -255 -334 -312
-420 -75 -111 -170 -306 -195 -399 -19 -70 -20 -77 -5 -128 24 -83 14 -116
-73 -234 -273 -372 -389 -600 -418 -825 -6 -44 -3 -59 21 -105 31 -63 66 -107
103 -131 49 -33 67 -25 165 77 87 90 127 118 111 78 -4 -10 -9 -54 -12 -99 -5
-78 -5 -82 23 -113 32 -36 101 -55 108 -30 30 108 44 147 80 224 23 50 66 118
94 152 61 72 76 106 68 149 -8 38 -39 68 -87 83 -52 17 -152 -8 -275 -69 -54
-26 -100 -47 -101 -46 -5 4 97 246 134 321 23 44 82 143 133 220 97 145 140
226 140 260 0 37 -20 91 -55 149 -19 32 -35 68 -35 80 0 81 307 585 515 844
93 116 155 186 319 360 22 23 38 42 36 42 -3 -1 -36 -22 -73 -49z"/>
<path d="M1739 8827 c-8 -7 -65 -73 -126 -148 -61 -74 -138 -159 -171 -187
-61 -53 -248 -182 -264 -182 -14 0 -9 -50 6 -56 8 -3 37 6 65 21 29 14 56 23
61 20 6 -4 10 -27 10 -52 0 -28 8 -60 21 -83 l22 -38 -52 -90 c-66 -116 -142
-276 -181 -381 -31 -84 -35 -114 -9 -63 81 159 146 252 248 352 122 119 147
150 220 272 101 169 170 348 191 495 17 116 4 155 -41 120z"/>
<path d="M3490 8345 c-147 -29 -284 -116 -492 -309 -82 -75 -148 -139 -148
-142 0 -8 21 7 89 64 122 103 306 211 421 247 35 11 106 19 198 22 121 5 147
9 167 25 33 25 32 61 -1 87 -22 17 -40 21 -98 20 -39 0 -100 -7 -136 -14z"/>
<path d="M3352 8039 c-145 -21 -296 -96 -460 -229 -124 -99 -162 -142 -57 -64
211 158 305 193 538 199 114 3 154 7 173 20 38 24 30 56 -19 74 -33 13 -85 12
-175 0z"/>
<path d="M4665 7843 c244 -84 494 -249 686 -451 276 -290 583 -864 644 -1207
23 -126 30 -394 16 -538 -16 -151 -59 -320 -122 -477 -86 -214 -156 -328 -333
-535 -269 -316 -322 -393 -371 -536 -23 -69 -29 -105 -31 -199 l-3 -115 13 80
c37 226 148 432 339 627 56 58 181 172 277 253 96 82 208 183 249 224 130 134
271 334 271 386 0 10 -16 33 -35 51 l-35 33 16 153 c27 252 11 550 -40 745
-60 228 -238 562 -450 842 -110 145 -165 201 -297 302 -361 275 -585 386 -799
395 l-105 4 110 -37z"/>
<path d="M3419 7807 c-50 -27 -93 -83 -108 -142 -14 -55 3 -118 44 -161 26
-27 40 -34 71 -34 22 0 44 4 51 8 15 10 31 53 26 70 -7 18 -20 15 -26 -8 -3
-11 -14 -20 -24 -20 -51 0 -59 71 -14 119 47 51 111 40 178 -31 93 -96 117
-302 56 -473 -40 -109 -120 -244 -207 -345 -116 -135 -241 -344 -286 -480 -27
-80 -47 -285 -35 -355 9 -46 10 -42 16 65 18 330 118 522 400 773 119 105 190
198 229 300 101 260 73 465 -88 636 -93 98 -192 126 -283 78z"/>
<path d="M4485 7583 c6 -6 62 -45 125 -88 138 -94 165 -118 287 -260 103 -119
223 -292 296 -426 81 -148 182 -429 241 -670 60 -246 78 -625 37 -815 -27
-132 -80 -283 -142 -406 -49 -98 -67 -122 -54 -70 18 69 36 219 41 347 11 236
-22 445 -108 680 -43 117 -180 421 -198 439 -6 6 5 -34 25 -89 148 -406 175
-553 155 -831 -22 -311 -60 -463 -160 -633 -103 -178 -485 -555 -880 -871
-478 -382 -802 -762 -1008 -1183 -87 -176 -175 -391 -217 -531 -14 -48 -28
-86 -30 -85 -2 2 -21 49 -43 104 -113 285 -191 581 -236 890 -47 324 -76 864
-58 1069 25 268 84 528 173 758 60 154 214 460 317 631 39 65 67 117 63 115
-29 -11 -206 -239 -304 -388 -327 -503 -463 -1027 -428 -1650 25 -440 103
-904 218 -1305 206 -719 337 -1095 493 -1410 93 -187 216 -393 255 -425 10 -8
-6 21 -35 65 -72 111 -142 260 -194 417 -142 427 -132 879 30 1327 80 221 278
547 501 826 190 237 282 330 694 697 148 132 324 314 426 440 20 26 39 45 41
43 2 -2 -21 -68 -51 -147 -127 -330 -156 -454 -164 -699 -5 -164 7 -352 25
-386 4 -6 8 43 8 110 2 138 13 216 51 332 53 165 191 413 253 457 54 37 66 62
42 85 -10 10 -26 23 -36 28 -15 9 -11 19 34 94 76 127 122 182 245 291 125
110 176 167 257 285 120 176 143 239 195 540 21 126 25 494 5 600 -44 238
-110 436 -216 652 -240 486 -433 739 -699 916 -98 66 -309 166 -272 130z"/>
<path d="M1800 7240 c0 -5 5 -10 10 -10 6 0 10 5 10 10 0 6 -4 10 -10 10 -5 0
-10 -4 -10 -10z"/>
<path d="M2245 7193 c-274 -33 -626 -253 -899 -562 -111 -125 -150 -151 -235
-158 -114 -10 -257 46 -544 214 -27 16 26 -52 87 -112 129 -127 334 -219 517
-232 l89 -6 30 -51 c41 -73 72 -112 142 -184 107 -109 220 -170 403 -217 106
-27 275 -51 299 -42 30 12 1 43 -63 66 -77 28 -101 58 -101 123 0 56 14 80
139 238 175 223 506 509 543 472 22 -22 -55 -257 -135 -417 -70 -140 -213
-329 -282 -375 -16 -10 -32 -26 -37 -34 -32 -57 156 -3 276 79 21 14 40 25 42
23 5 -5 -120 -176 -203 -278 -184 -224 -372 -379 -561 -460 -109 -47 -235 -87
-301 -96 -28 -4 -51 -11 -51 -17 0 -6 47 -8 133 -4 147 6 222 22 392 86 60 23
110 39 112 38 2 -2 -18 -48 -43 -103 -114 -243 -200 -501 -229 -684 -17 -110
-20 -353 -5 -485 15 -125 46 -272 84 -389 l31 -98 1 173 c1 206 19 326 71 489
58 182 197 441 350 655 24 32 43 55 43 50 0 -6 -14 -43 -30 -84 -93 -227 -158
-495 -172 -706 -3 -33 -7 -40 -28 -45 -30 -7 -50 -43 -50 -91 0 -107 78 -456
144 -643 48 -135 153 -373 169 -383 7 -4 8 0 3 13 -5 10 -28 97 -52 193 -143
572 -128 1034 51 1551 71 202 205 447 352 640 l35 45 -32 13 c-27 11 -40 10
-84 -2 -93 -27 -292 -184 -435 -343 -41 -45 -77 -81 -79 -79 -8 9 52 185 93
272 52 111 111 205 218 343 l80 104 -68 -56 c-60 -50 -221 -145 -230 -135 -1
1 46 64 106 138 149 185 258 337 351 493 134 222 190 356 168 397 -19 36 -38
21 -81 -62 -59 -118 -122 -213 -182 -272 -53 -54 -104 -92 -112 -84 -2 2 36
85 85 183 60 120 101 219 124 295 64 214 69 281 26 295 -50 16 -245 -117 -480
-330 -108 -96 -154 -148 -247 -271 -62 -84 -130 -167 -150 -184 -32 -29 -41
-32 -79 -26 -59 8 -151 46 -219 92 -50 33 -117 107 -182 200 l-22 31 60 59
c34 32 89 100 124 149 134 191 259 312 423 410 106 63 203 80 306 54 31 -8 54
-8 84 1 39 10 42 13 42 45 0 36 -28 75 -54 75 -8 0 -20 2 -28 3 -7 2 -26 2
-43 0z"/>
<path d="M1600 7105 c0 -8 9 -15 20 -15 11 0 20 7 20 15 0 8 -9 15 -20 15 -11
0 -20 -7 -20 -15z"/>
<path d="M1720 7075 c0 -8 7 -15 15 -15 8 0 15 7 15 15 0 8 -7 15 -15 15 -8 0
-15 -7 -15 -15z"/>
<path d="M1610 7010 c0 -5 5 -10 10 -10 6 0 10 5 10 10 0 6 -4 10 -10 10 -5 0
-10 -4 -10 -10z"/>
<path d="M1510 6995 c0 -8 5 -15 10 -15 6 0 10 7 10 15 0 8 -4 15 -10 15 -5 0
-10 -7 -10 -15z"/>
<path d="M1357 6932 c-41 -45 -2 -82 40 -39 28 28 26 57 -5 57 -10 0 -26 -8
-35 -18z"/>
<path d="M1546 6934 c-12 -12 -14 -20 -7 -27 8 -8 16 -6 28 6 12 12 14 20 6
28 -7 7 -15 5 -27 -7z"/>
<path d="M4191 6783 c169 -421 252 -882 208 -1153 -30 -191 -94 -369 -174
-490 -28 -42 -124 -152 -220 -250 -444 -456 -584 -641 -796 -1042 -102 -192
-171 -348 -203 -460 -12 -43 -25 -80 -28 -83 -7 -8 -42 142 -59 250 -15 98
-14 362 1 522 24 258 125 671 251 1028 47 134 191 424 292 588 36 59 64 107
61 107 -3 0 -47 -64 -98 -142 -322 -492 -565 -1029 -650 -1436 -43 -209 -51
-293 -51 -567 1 -277 13 -408 61 -655 34 -175 115 -471 135 -493 4 -5 17 35
29 90 127 561 335 1084 559 1408 109 158 182 244 373 435 218 218 310 328 396
475 77 131 124 243 162 390 l32 120 -5 270 c-6 356 -29 492 -127 780 -37 107
-172 405 -183 405 -3 0 13 -44 34 -97z"/>
<path d="M1372 6820 c-40 -25 -50 -47 -29 -67 14 -14 20 -13 62 13 33 21 45
35 43 49 -4 27 -36 30 -76 5z"/>
<path d="M1205 6750 c-18 -19 -25 -34 -19 -40 16 -16 54 1 60 27 10 40 -9 46
-41 13z"/>
<path d="M1230 6660 c-19 -19 -27 -69 -14 -83 15 -14 94 67 94 97 0 15 -62 4
-80 -14z"/>
<path d="M1062 6538 c2 -18 10 -24 39 -26 27 -2 38 1 43 13 10 26 -2 35 -45
35 -36 0 -40 -2 -37 -22z"/>
</g>
</svg>
